<svg xmlns="http://www.w3.org/2000/svg" viewBox="0 0 200 280" width="200" height="280">
  <defs>
    <radialGradient id="bodyGrad11" cx="38%" cy="32%" r="65%">
      <stop offset="0%" stop-color="#e0a060"/>
      <stop offset="100%" stop-color="#8a5022"/>
    </radialGradient>
    <radialGradient id="eyeGrad11" cx="35%" cy="30%" r="70%">
      <stop offset="0%" stop-color="#f0b020"/>
      <stop offset="100%" stop-color="#b07000"/>
    </radialGradient>
    <clipPath id="illus11">
      <rect x="12" y="34" width="176" height="185" rx="8"/>
    </clipPath>
  </defs>

  <!-- カード背景 -->
  <rect width="200" height="280" rx="12" fill="#1a1a2e"/>
  <!-- Rレアリティ枠（青） -->
  <rect x="2" y="2" width="196" height="276" rx="11" fill="none" stroke="#4dabf7" stroke-width="3"/>
  <rect x="6" y="6" width="188" height="268" rx="9" fill="none" stroke="#4dabf7" stroke-width="1" opacity="0.4"/>
  <!-- 四隅デコ -->
  <circle cx="14" cy="14" r="3" fill="#4dabf7"/>
  <circle cx="186" cy="14" r="3" fill="#4dabf7"/>
  <circle cx="14" cy="266" r="3" fill="#4dabf7"/>
  <circle cx="186" cy="266" r="3" fill="#4dabf7"/>
  <!-- レアリティバッジ -->
  <rect x="12" y="12" width="22" height="16" rx="4" fill="#4dabf7"/>
  <text x="23" y="24" text-anchor="middle" font-family="Arial, sans-serif" font-size="11" font-weight="bold" fill="#1a1a2e">R</text>
  <!-- イラストエリア -->
  <rect x="12" y="34" width="176" height="185" rx="8" fill="#152040"/>

  <!-- 猫イラスト（クリップ） -->
  <g clip-path="url(#illus11)">
    <!-- 尻尾（ヒョウ柄の縞） -->
    <path d="M148,183 C175,162 178,138 166,124 C158,113 148,122 150,140 C152,157 140,172 124,184"
          fill="none" stroke="#c07838" stroke-width="14" stroke-linecap="round"/>
    <path d="M164,127 C158,116 150,124 152,137" fill="none" stroke="#3a1808" stroke-width="6" stroke-linecap="round"/>
    <path d="M158,152 C155,143 149,148 150,159" fill="none" stroke="#3a1808" stroke-width="5" stroke-linecap="round"/>
    <path d="M145,174 C142,168 138,171 139,179" fill="none" stroke="#3a1808" stroke-width="4" stroke-linecap="round"/>
    <!-- 体（ゴールデンブラウン） -->
    <ellipse cx="100" cy="178" rx="50" ry="42" fill="url(#bodyGrad11)"/>
    <!-- 体の斑点（ロゼット模様） -->
    <ellipse cx="80" cy="160" rx="9" ry="7" fill="#3a1808" opacity="0.85"/>
    <ellipse cx="80" cy="160" rx="5" ry="3.5" fill="#c07838"/>
    <ellipse cx="120" cy="157" rx="9" ry="7" fill="#3a1808" opacity="0.85"/>
    <ellipse cx="120" cy="157" rx="5" ry="3.5" fill="#c07838"/>
    <ellipse cx="98" cy="172" rx="9" ry="6" fill="#3a1808" opacity="0.85"/>
    <ellipse cx="98" cy="172" rx="5" ry="3" fill="#c07838"/>
    <ellipse cx="74" cy="181" rx="7" ry="5" fill="#3a1808" opacity="0.8"/>
    <ellipse cx="126" cy="179" rx="7" ry="5" fill="#3a1808" opacity="0.8"/>
    <ellipse cx="112" cy="188" rx="7" ry="5" fill="#3a1808" opacity="0.75"/>
    <ellipse cx="86" cy="190" rx="7" ry="5" fill="#3a1808" opacity="0.75"/>
    <!-- 耳（外） -->
    <polygon points="68,90 79,58 97,88" fill="#c07838"/>
    <polygon points="103,88 121,58 132,90" fill="#c07838"/>
    <line x1="79" y1="58" x2="68" y2="90" stroke="#3a1808" stroke-width="2" opacity="0.6"/>
    <line x1="79" y1="58" x2="97" y2="88" stroke="#3a1808" stroke-width="2" opacity="0.6"/>
    <!-- 耳（内） -->
    <polygon points="71,88 79,64 93,86" fill="#f0b090"/>
    <polygon points="107,86 121,64 129,88" fill="#f0b090"/>
    <!-- 頭 -->
    <ellipse cx="100" cy="108" rx="50" ry="46" fill="url(#bodyGrad11)"/>
    <!-- 額の斑点・縞 -->
    <path d="M88,74 L90,64 L96,71 L100,62 L104,71 L110,64 L112,74" fill="none" stroke="#3a1808" stroke-width="2.2" stroke-linejoin="round" opacity="0.9"/>
    <ellipse cx="72" cy="112" rx="8" ry="6" fill="#3a1808" opacity="0.75"/>
    <ellipse cx="72" cy="112" rx="4" ry="2.5" fill="#c07838"/>
    <ellipse cx="128" cy="112" rx="8" ry="6" fill="#3a1808" opacity="0.75"/>
    <ellipse cx="128" cy="112" rx="4" ry="2.5" fill="#c07838"/>
    <path d="M79,117 Q82,121 85,118" fill="none" stroke="#3a1808" stroke-width="1.8" opacity="0.8"/>
    <path d="M115,118 Q118,121 121,117" fill="none" stroke="#3a1808" stroke-width="1.8" opacity="0.8"/>
    <!-- 目 -->
    <ellipse cx="85" cy="107" rx="11" ry="10" fill="#f0e8d0"/>
    <ellipse cx="115" cy="107" rx="11" ry="10" fill="#f0e8d0"/>
    <ellipse cx="85" cy="107" rx="8" ry="8.5" fill="url(#eyeGrad11)"/>
    <ellipse cx="115" cy="107" rx="8" ry="8.5" fill="url(#eyeGrad11)"/>
    <ellipse cx="85" cy="107" rx="2.5" ry="7" fill="#080808"/>
    <ellipse cx="115" cy="107" rx="2.5" ry="7" fill="#080808"/>
    <circle cx="88" cy="104" r="2.5" fill="white" opacity="0.85"/>
    <circle cx="118" cy="104" r="2.5" fill="white" opacity="0.85"/>
    <!-- 鼻・口 -->
    <ellipse cx="100" cy="121" rx="5" ry="4" fill="#cc6050"/>
    <path d="M95,125 Q100,130 105,125" fill="none" stroke="#8a5022" stroke-width="1.5"/>
    <line x1="100" y1="125" x2="100" y2="127" stroke="#8a5022" stroke-width="1.5"/>
    <!-- ひげ -->
    <line x1="94" y1="121" x2="56" y2="115" stroke="#ffe0a0" stroke-width="1" opacity="0.9"/>
    <line x1="94" y1="122" x2="55" y2="122" stroke="#ffe0a0" stroke-width="1" opacity="0.9"/>
    <line x1="94" y1="123" x2="57" y2="129" stroke="#ffe0a0" stroke-width="1" opacity="0.9"/>
    <line x1="106" y1="121" x2="144" y2="115" stroke="#ffe0a0" stroke-width="1" opacity="0.9"/>
    <line x1="106" y1="122" x2="145" y2="122" stroke="#ffe0a0" stroke-width="1" opacity="0.9"/>
    <line x1="106" y1="123" x2="143" y2="129" stroke="#ffe0a0" stroke-width="1" opacity="0.9"/>
    <!-- 前脚（斑点あり） -->
    <ellipse cx="76" cy="214" rx="21" ry="11" fill="#c07838"/>
    <ellipse cx="124" cy="214" rx="21" ry="11" fill="#c07838"/>
    <ellipse cx="70" cy="212" rx="5" ry="3.5" fill="#3a1808" opacity="0.7"/>
    <ellipse cx="82" cy="214" rx="5" ry="3.5" fill="#3a1808" opacity="0.7"/>
    <ellipse cx="118" cy="212" rx="5" ry="3.5" fill="#3a1808" opacity="0.7"/>
    <ellipse cx="130" cy="214" rx="5" ry="3.5" fill="#3a1808" opacity="0.7"/>
    <line x1="66" y1="212" x2="66" y2="220" stroke="#3a1808" stroke-width="1.3" opacity="0.8"/>
    <line x1="72" y1="210" x2="72" y2="219" stroke="#3a1808" stroke-width="1.3" opacity="0.8"/>
    <line x1="80" y1="210" x2="80" y2="219" stroke="#3a1808" stroke-width="1.3" opacity="0.8"/>
    <line x1="86" y1="212" x2="86" y2="220" stroke="#3a1808" stroke-width="1.3" opacity="0.8"/>
    <line x1="114" y1="212" x2="114" y2="220" stroke="#3a1808" stroke-width="1.3" opacity="0.8"/>
    <line x1="120" y1="210" x2="120" y2="219" stroke="#3a1808" stroke-width="1.3" opacity="0.8"/>
    <line x1="128" y1="210" x2="128" y2="219" stroke="#3a1808" stroke-width="1.3" opacity="0.8"/>
    <line x1="134" y1="212" x2="134" y2="220" stroke="#3a1808" stroke-width="1.3" opacity="0.8"/>
  </g>

  <!-- 名前プレート -->
  <rect x="12" y="224" width="176" height="44" rx="6" fill="#0d1525"/>
  <text x="100" y="250" text-anchor="middle" font-family="'Helvetica Neue', Arial, 'Hiragino Kaku Gothic ProN', sans-serif" font-size="16" font-weight="bold" fill="#cccccc">ベンガル</text>
  <text x="100" y="263" text-anchor="middle" font-family="Arial, sans-serif" font-size="9" fill="#4dabf7">BENGAL</text>
</svg>
