<svg xmlns="http://www.w3.org/2000/svg" viewBox="0 0 200 280" width="200" height="280">
  <defs>
    <radialGradient id="bodyGrad13" cx="38%" cy="32%" r="65%">
      <stop offset="0%" stop-color="#f8f4ec"/>
      <stop offset="100%" stop-color="#d8d4cc"/>
    </radialGradient>
    <radialGradient id="eyeGrad13" cx="35%" cy="30%" r="70%">
      <stop offset="0%" stop-color="#6699ff"/>
      <stop offset="100%" stop-color="#2244cc"/>
    </radialGradient>
    <clipPath id="illus13">
      <rect x="12" y="34" width="176" height="185" rx="8"/>
    </clipPath>
  </defs>

  <!-- カード背景 -->
  <rect width="200" height="280" rx="12" fill="#1a1a2e"/>
  <!-- Rレアリティ枠（青） -->
  <rect x="2" y="2" width="196" height="276" rx="11" fill="none" stroke="#4dabf7" stroke-width="3"/>
  <rect x="6" y="6" width="188" height="268" rx="9" fill="none" stroke="#4dabf7" stroke-width="1" opacity="0.4"/>
  <!-- 四隅デコ -->
  <circle cx="14" cy="14" r="3" fill="#4dabf7"/>
  <circle cx="186" cy="14" r="3" fill="#4dabf7"/>
  <circle cx="14" cy="266" r="3" fill="#4dabf7"/>
  <circle cx="186" cy="266" r="3" fill="#4dabf7"/>
  <!-- レアリティバッジ -->
  <rect x="12" y="12" width="22" height="16" rx="4" fill="#4dabf7"/>
  <text x="23" y="24" text-anchor="middle" font-family="Arial, sans-serif" font-size="11" font-weight="bold" fill="#1a1a2e">R</text>
  <!-- イラストエリア -->
  <rect x="12" y="34" width="176" height="185" rx="8" fill="#152040"/>

  <!-- 猫イラスト（クリップ） -->
  <g clip-path="url(#illus13)">
    <!-- 体の長毛（外側） -->
    <ellipse cx="100" cy="178" rx="58" ry="50" fill="#f0ece4" opacity="0.35"/>
    <ellipse cx="100" cy="178" rx="54" ry="46" fill="#f0ece4" opacity="0.4"/>
    <!-- 尻尾（長毛・ポイントカラー） -->
    <path d="M148,183 C178,160 182,134 168,120 C158,110 146,118 149,138 C151,156 138,172 122,184"
          fill="none" stroke="#b8c8dc" stroke-width="18" stroke-linecap="round"/>
    <path d="M165,125 C158,114 149,122 151,138" fill="none" stroke="#d8e4f0" stroke-width="8" stroke-linecap="round"/>
    <path d="M168,143 C165,134 158,137 160,148" fill="none" stroke="#c8d8ec" stroke-width="6" stroke-linecap="round"/>
    <!-- 体（クリーム色） -->
    <ellipse cx="100" cy="178" rx="50" ry="42" fill="url(#bodyGrad13)"/>
    <ellipse cx="98" cy="172" rx="28" ry="24" fill="#faf8f4" opacity="0.8"/>
    <!-- 耳（ポイントカラー） -->
    <polygon points="62,92 76,56 98,88" fill="#b8c8dc"/>
    <polygon points="102,88 124,56 138,92" fill="#b8c8dc"/>
    <polygon points="60,90 75,54 97,87" fill="#c8d8ec" opacity="0.5"/>
    <polygon points="103,87 125,54 140,90" fill="#c8d8ec" opacity="0.5"/>
    <!-- 耳（内） -->
    <polygon points="68,88 77,64 91,86" fill="#f8c8cc"/>
    <polygon points="109,86 123,64 132,88" fill="#f8c8cc"/>
    <!-- 耳の長毛先端 -->
    <line x1="76" y1="56" x2="72" y2="47" stroke="#c8d4e8" stroke-width="2" opacity="0.8"/>
    <line x1="76" y1="56" x2="79" y2="47" stroke="#c8d4e8" stroke-width="2" opacity="0.7"/>
    <line x1="124" y1="56" x2="121" y2="47" stroke="#c8d4e8" stroke-width="2" opacity="0.7"/>
    <line x1="124" y1="56" x2="127" y2="47" stroke="#c8d4e8" stroke-width="2" opacity="0.8"/>
    <!-- 頭の長毛外輪郭 -->
    <ellipse cx="100" cy="106" rx="56" ry="52" fill="#f0ece4" opacity="0.3"/>
    <ellipse cx="100" cy="106" rx="53" ry="49" fill="#f0ece4" opacity="0.35"/>
    <!-- 頭（クリーム色） -->
    <ellipse cx="100" cy="108" rx="50" ry="46" fill="url(#bodyGrad13)"/>
    <!-- フェイスマスク（ポイントカラー） -->
    <ellipse cx="85" cy="100" rx="16" ry="13" fill="#b8c8dc" opacity="0.5"/>
    <ellipse cx="115" cy="100" rx="16" ry="13" fill="#b8c8dc" opacity="0.5"/>
    <ellipse cx="100" cy="82" rx="24" ry="16" fill="#b8c8dc" opacity="0.4"/>
    <path d="M78,90 Q100,75 122,90" fill="#faf8f4" opacity="0.7"/>
    <!-- 目 -->
    <ellipse cx="85" cy="107" rx="11" ry="10" fill="#eef2f8"/>
    <ellipse cx="115" cy="107" rx="11" ry="10" fill="#eef2f8"/>
    <ellipse cx="85" cy="107" rx="8" ry="8.5" fill="url(#eyeGrad13)"/>
    <ellipse cx="115" cy="107" rx="8" ry="8.5" fill="url(#eyeGrad13)"/>
    <ellipse cx="85" cy="107" rx="2.5" ry="7" fill="#050510"/>
    <ellipse cx="115" cy="107" rx="2.5" ry="7" fill="#050510"/>
    <circle cx="88" cy="104" r="2.5" fill="white" opacity="0.9"/>
    <circle cx="118" cy="104" r="2.5" fill="white" opacity="0.9"/>
    <!-- 鼻・口 -->
    <ellipse cx="100" cy="121" rx="5" ry="4" fill="#e8a0a8"/>
    <path d="M95,125 Q100,130 105,125" fill="none" stroke="#b8a8a0" stroke-width="1.5"/>
    <line x1="100" y1="125" x2="100" y2="127" stroke="#b8a8a0" stroke-width="1.5"/>
    <!-- ひげ（白） -->
    <line x1="94" y1="121" x2="56" y2="115" stroke="#f8f4ec" stroke-width="1.2" opacity="0.9"/>
    <line x1="94" y1="122" x2="55" y2="122" stroke="#f8f4ec" stroke-width="1.2" opacity="0.9"/>
    <line x1="94" y1="123" x2="57" y2="129" stroke="#f8f4ec" stroke-width="1.2" opacity="0.9"/>
    <line x1="106" y1="121" x2="144" y2="115" stroke="#f8f4ec" stroke-width="1.2" opacity="0.9"/>
    <line x1="106" y1="122" x2="145" y2="122" stroke="#f8f4ec" stroke-width="1.2" opacity="0.9"/>
    <line x1="106" y1="123" x2="143" y2="129" stroke="#f8f4ec" stroke-width="1.2" opacity="0.9"/>
    <!-- 前脚（ポイントカラー・長毛） -->
    <ellipse cx="76" cy="216" rx="24" ry="13" fill="#c8d4e8"/>
    <ellipse cx="124" cy="216" rx="24" ry="13" fill="#c8d4e8"/>
    <line x1="60" y1="212" x2="62" y2="222" stroke="#d8e4f4" stroke-width="2" opacity="0.7"/>
    <line x1="66" y1="209" x2="68" y2="221" stroke="#d8e4f4" stroke-width="2" opacity="0.7"/>
    <line x1="74" y1="208" x2="74" y2="221" stroke="#d8e4f4" stroke-width="2" opacity="0.7"/>
    <line x1="82" y1="209" x2="82" y2="221" stroke="#d8e4f4" stroke-width="2" opacity="0.7"/>
    <line x1="90" y1="212" x2="90" y2="222" stroke="#d8e4f4" stroke-width="2" opacity="0.7"/>
    <line x1="110" y1="212" x2="112" y2="222" stroke="#d8e4f4" stroke-width="2" opacity="0.7"/>
    <line x1="116" y1="209" x2="118" y2="221" stroke="#d8e4f4" stroke-width="2" opacity="0.7"/>
    <line x1="124" y1="208" x2="124" y2="221" stroke="#d8e4f4" stroke-width="2" opacity="0.7"/>
    <line x1="132" y1="209" x2="132" y2="221" stroke="#d8e4f4" stroke-width="2" opacity="0.7"/>
    <line x1="140" y1="212" x2="140" y2="222" stroke="#d8e4f4" stroke-width="2" opacity="0.7"/>
  </g>

  <!-- 名前プレート -->
  <rect x="12" y="224" width="176" height="44" rx="6" fill="#0d1525"/>
  <text x="100" y="250" text-anchor="middle" font-family="'Helvetica Neue', Arial, 'Hiragino Kaku Gothic ProN', sans-serif" font-size="16" font-weight="bold" fill="#cccccc">ラグドール</text>
  <text x="100" y="263" text-anchor="middle" font-family="Arial, sans-serif" font-size="9" fill="#4dabf7">RAGDOLL</text>
</svg>
